<svg xmlns="http://www.w3.org/2000/svg" viewBox="0 0 815.08 222.58"><defs><style>.cls-1{fill:#515065;stroke:#525064;stroke-width:14px;}.cls-1,.cls-3{stroke-miterlimit:10;}.cls-2,.cls-3{fill:#01f04d;}.cls-3{stroke:#01f04d;}</style></defs><title>gray_green</title><g id="Слой_2" data-name="Слой 2"><g id="Слой_1-2" data-name="Слой 1"><path class="cls-1" d="M47.76,69.11V212.33H19V69.11Z"/><path class="cls-1" d="M164.52,69.11q36.62,0,54.38,16.41t17.77,46.25v80.56h-29V131.77q0-17.09-10.17-26t-33-9H117.6q-3.53,0-3.53,4.07V212.33H85.32v-121q0-12.75,4.61-17.49t15.46-4.75Z"/><path class="cls-1" d="M424.64,7V151q0,31.2-13.43,46.25T372,212.33h-39.6q-28.75,0-45.43-17.63t-16.68-54q0-36.34,16.68-54t45.43-17.63h63.2V28.55A21.55,21.55,0,0,1,417.16,7Zm-61,177.39q17.35,0,24.68-8.14t7.32-26.58V96.78H335.13q-18.72,0-27.26,10.31t-8.54,33.63q0,23.33,8.54,33.5t27.26,10.17Z"/><path class="cls-1" d="M558.9,69.11q25.49,0,36.89,11.53t11.39,32.41q0,19.8-11.12,30.51t-37.43,10.71H490.54v10.31q0,8.68,5,14.24t17,5.56h70.84a16.77,16.77,0,0,1,16.77,16.77v11.17H512.51q-13.57,0-22.92-3.53a41,41,0,0,1-15.46-9.9A37.76,37.76,0,0,1,465.32,184a62,62,0,0,1-2.71-18.85V116.31a62.42,62.42,0,0,1,2.71-18.72,37.68,37.68,0,0,1,8.82-15.05,41.1,41.1,0,0,1,15.46-9.9q9.36-3.52,22.92-3.53Zm-68.35,62.66h67.27q11.66,0,16.41-4.61T579,114.68q0-8.14-4.88-13t-15.46-4.88H512.51q-11.94,0-17,5.7a20.56,20.56,0,0,0-5,14.1Z"/><path class="cls-1" d="M643.84,69.11A26.41,26.41,0,0,1,668.23,85.4l41,98.72q1.63,4.34,7.05,4.34,5.7,0,7.59-4.34l42.76-99.06a26.41,26.41,0,0,1,24.25-15.94h13.56L749.08,196.87q-4.62,10.31-12.61,14.51t-20.21,4.2q-12.48,0-20.48-4.34t-12.07-14.37L631.1,69.11Z"/><path class="cls-2" d="M340.95,93.26h49.5a0,0,0,0,1,0,0v62.5a28,28,0,0,1-28,28h-29a33.5,33.5,0,0,1-33.5-33.5v-16a41,41,0,0,1,41-41Z"/><path class="cls-1" d="M7,15.32H33.14A14.63,14.63,0,0,1,47.77,29.95V41.17a0,0,0,0,1,0,0H23.43A16.43,16.43,0,0,1,7,24.74V15.32A0,0,0,0,1,7,15.32Z"/><path class="cls-3" d="M737.89,67l-20.44,51.67L695.91,67.31a18.39,18.39,0,0,1,0-14.23L717.45,1.76l20.44,51.67A18.39,18.39,0,0,1,737.89,67Z"/></g></g></svg>