<svg id="Слой_1" data-name="Слой 1" xmlns="http://www.w3.org/2000/svg" viewBox="0 0 180 50"><defs><style>.cls-1,.cls-2,.cls-3{fill:gray;stroke:gray;stroke-miterlimit:10;}.cls-1{stroke-width:3px;}.cls-2{stroke-width:2px;}.cls-4{fill:#fcee21;}</style></defs><title>Монтажная область 1</title><path class="cls-1" d="M21.86,38.17V22.65H27V38.17Z"/><path class="cls-1" d="M32.28,38.17V12.65h5.1L55.24,30.51V12.65h5.1V38.17H57.79a6.14,6.14,0,0,1-4.34-1.8L37.38,20.3V35.54a2.63,2.63,0,0,1-2.63,2.63Z"/><path class="cls-1" d="M66.33,38.17V12.65H86.74a4.82,4.82,0,0,1,3.59,1.52,4.9,4.9,0,0,1,1.52,3.59V33.07a4.86,4.86,0,0,1-1.52,3.63,5,5,0,0,1-3.59,1.48Zm17.86-5.1A2.52,2.52,0,0,0,86,32.35a2.5,2.5,0,0,0,.76-1.83V20.3a2.59,2.59,0,0,0-2.55-2.55H71.43V33.07Z"/><path class="cls-1" d="M97.49,38.17V15.88a3.23,3.23,0,0,1,3.23-3.23H123v5.1H102.6v5.1h15.31V28H102.6v5.11H123v2a3.08,3.08,0,0,1-3.08,3.08Z"/><line class="cls-2" x1="22.45" y1="21.88" x2="22.45" y2="37.38"/><path class="cls-3" d="M23.24,11.66H28a0,0,0,0,1,0,0v6.69a0,0,0,0,1,0,0H20.82a0,0,0,0,1,0,0V14.07A2.42,2.42,0,0,1,23.24,11.66Z"/><path class="cls-3" d="M143.26,29.12l8.11-15.07a5,5,0,0,1,4.4-2.63h5.86L146.15,40.16h-4.76a5.35,5.35,0,0,1-5.19-4l-6.36-24.71h5a5,5,0,0,1,4.84,3.75Z"/><path class="cls-4" d="M72.68,18.71v13.5H83.93A2.18,2.18,0,0,0,86.11,30V20.89a2.18,2.18,0,0,0-2.18-2.18Z"/></svg>