<svg xmlns="http://www.w3.org/2000/svg" viewBox="0 0 875.9 238.38"><defs><style>.cls-1{fill:#53536b;}.cls-2{fill:#baff66;}</style></defs><title>logoWithGreen</title><g id="Слой_2" data-name="Слой 2"><g id="Слой_1-2" data-name="Слой 1"><path class="cls-1" d="M33.86,238.38H30.4A30.39,30.39,0,0,1,.32,203.6L19.62,71.16H53.11A27.15,27.15,0,0,1,80,102.23l-16,110.14A30.39,30.39,0,0,1,33.86,238.38ZM63.2,49.16H22.53A21.67,21.67,0,0,1,1,24.84l.34-2.75A22.88,22.88,0,0,1,24.07,2H43A22.88,22.88,0,0,1,65.73,27.54Z"/><path class="cls-1" d="M237.57,238.38h-10a26.62,26.62,0,0,1-26.21-31.27L217,112.72a16.61,16.61,0,0,0-16.39-19.31H191a16.61,16.61,0,0,0-16.38,13.86L156.32,216.46a26.62,26.62,0,0,1-26.2,21.92h-12a26.62,26.62,0,0,1-26.36-30.32l18.92-135a34.72,34.72,0,0,1,34.39-29.9H248.15A34.72,34.72,0,0,1,282.54,82.7L263.93,215.45A26.62,26.62,0,0,1,237.57,238.38Z"/><path class="cls-1" d="M422.78,238.38H320.25a33.38,33.38,0,0,1-33.05-38l18-128.65a33.16,33.16,0,0,1,32.84-28.56h44.8c11.1,0,18.66,9.78,17.19,20.78l-1.2,9c-1.22,9.12-8,15.92-17.19,15.92h-7.39c-5.16,0-6.53,3.79-7.26,8.9l-11.64,81.73a16.56,16.56,0,0,0,16.4,18.9h9.94a16.56,16.56,0,0,0,16.4-14.28L420.59,22.64A26.31,26.31,0,0,1,446.64,0h11.74a26.31,26.31,0,0,1,26.05,30L459.59,206.39A37.17,37.17,0,0,1,422.78,238.38Z"/><path class="cls-2" d="M626.81,179.08H580.58a11.89,11.89,0,0,1-11.74-13.82l1.89-11.54a11.89,11.89,0,0,1,11.74-10h10a14.45,14.45,0,0,0,14.26-12.14l4.55-28.06a14.36,14.36,0,0,0-14.18-16.66h-19.1a14.36,14.36,0,0,0-14.17,12l-12,72.61a19.76,19.76,0,0,0,19.24,23l68.22.87a19.11,19.11,0,0,1,18.75,21.23l-.35,3.17a21,21,0,0,1-20.82,18.62H536.19a46.73,46.73,0,0,1-46.28-53.22L504.92,78A40.47,40.47,0,0,1,545,43.16h95.18a37.28,37.28,0,0,1,36.92,42.43L667,157.91C664.07,179.14,648.24,179.08,626.81,179.08Z"/><path class="cls-1" d="M874.33,70.44,832.76,180.36a89.77,89.77,0,0,1-84,58h0a31.76,31.76,0,0,1-31.61-28.68l-14-144.24a7.1,7.1,0,0,1,0-1.7h0A24,24,0,0,1,727,43.16h22.52A20.79,20.79,0,0,1,769.06,57h0L772,154.35c.51,7.79,11.4,9.15,13.81,1.73L812.5,57l2-3A23,23,0,0,1,834.8,43.81L861,45.11a15.56,15.56,0,0,1,14.63,13.31h0A24.17,24.17,0,0,1,874.33,70.44Z"/></g></g></svg>