<svg xmlns="http://www.w3.org/2000/svg" viewBox="0 0 810.35 162.06"><defs><style>.cls-1,.cls-2,.cls-3{fill:#53536b;stroke:#53536b;stroke-miterlimit:10;}.cls-1{stroke-width:15px;}.cls-2{stroke-width:17px;}.cls-3{stroke-width:5px;}.cls-4{fill:#f7f9d3;}</style></defs><title>sharp</title><g id="Слой_2" data-name="Слой 2"><g id="Слой_1-2" data-name="Слой 1"><path class="cls-1" d="M8.39,154V66h28.9V154Z"/><path class="cls-2" d="M70.5,153.45V8.84H99.4L200.66,110V8.84h28.9v144.6H215a34.79,34.79,0,0,1-24.59-10.2L99.4,52.19v86.35a14.9,14.9,0,0,1-14.9,14.9h-14Z"/><path class="cls-2" d="M267.92,153.45V8.84H383.62A27.31,27.31,0,0,1,404,17.46a27.76,27.76,0,0,1,8.56,20.29v86.81a27.54,27.54,0,0,1-8.61,20.57,28.33,28.33,0,0,1-20.34,8.39Zm101.2-28.9a14.32,14.32,0,0,0,14.45-14.45V52.19a14.68,14.68,0,0,0-14.45-14.45h-72.3v86.81Z"/><path class="cls-2" d="M452,153.45V27.15a18.3,18.3,0,0,1,18.3-18.3H596.51v28.9H480.92v28.9h86.75V95.82H480.92v29H596.51v11.33a17.45,17.45,0,0,1-17.45,17.45h0Z"/><path class="cls-3" d="M16.21,3.69h27V41.6H2.5V17.4A13.71,13.71,0,0,1,16.21,3.69Z"/><path class="cls-2" d="M706.65,94.44l39.41-73.16A24.26,24.26,0,0,1,767.63,8.5H796.1L720.73,148.09H697.65a26,26,0,0,1-25.18-19.52L641.58,8.5h24.15A24.26,24.26,0,0,1,689.4,26.67Z"/><path class="cls-4" d="M303.2,43.18v76.49h63.69a12.35,12.35,0,0,0,12.63-12.06q0-.23,0-.46V55.53a12.35,12.35,0,0,0-12.35-12.35h-64Z"/></g></g></svg>